<?xml version="1.0" encoding="UTF-8" standalone="no"?>
<!DOCTYPE svg PUBLIC "-//W3C//DTD SVG 1.1//EN"
 "http://www.w3.org/Graphics/SVG/1.1/DTD/svg11.dtd">
<!-- Generated by graphviz version 12.1.2 (0)
 -->
<!-- Pages: 1 -->
<svg width="472pt" height="332pt"
 viewBox="0.00 0.00 472.44 332.00" xmlns="http://www.w3.org/2000/svg" xmlns:xlink="http://www.w3.org/1999/xlink">
<g id="graph0" class="graph" transform="scale(1 1) rotate(0) translate(4 328)">
<polygon fill="white" stroke="none" points="-4,4 -4,-328 468.44,-328 468.44,4 -4,4"/>
<!-- visedriver -->
<g id="node1" class="node">
<title>visedriver</title>
<ellipse fill="none" stroke="black" cx="230" cy="-306" rx="47.77" ry="18"/>
<text text-anchor="middle" x="230" y="-300.95" font-family="Times,serif" font-size="14.00">visedriver</text>
</g>
<!-- sarafu&#45;api -->
<g id="node2" class="node">
<title>sarafu&#45;api</title>
<ellipse fill="none" stroke="black" cx="306" cy="-234" rx="47.77" ry="18"/>
<text text-anchor="middle" x="306" y="-228.95" font-family="Times,serif" font-size="14.00">sarafu&#45;api</text>
</g>
<!-- visedriver&#45;&gt;sarafu&#45;api -->
<g id="edge1" class="edge">
<title>visedriver&#45;&gt;sarafu&#45;api</title>
<path fill="none" stroke="black" d="M247.24,-289.12C256.99,-280.14 269.36,-268.74 280.23,-258.73"/>
<polygon fill="black" stroke="black" points="282.46,-261.44 287.44,-252.09 277.72,-256.29 282.46,-261.44"/>
</g>
<!-- visedriver&#45;africastalking -->
<g id="node3" class="node">
<title>visedriver&#45;africastalking</title>
<ellipse fill="none" stroke="black" cx="101" cy="-234" rx="101" ry="18"/>
<text text-anchor="middle" x="101" y="-228.95" font-family="Times,serif" font-size="14.00">visedriver&#45;africastalking</text>
</g>
<!-- visedriver&#45;&gt;visedriver&#45;africastalking -->
<g id="edge2" class="edge">
<title>visedriver&#45;&gt;visedriver&#45;africastalking</title>
<path fill="none" stroke="black" d="M203.58,-290.67C185.67,-280.95 161.66,-267.92 141.37,-256.91"/>
<polygon fill="black" stroke="black" points="143.24,-253.94 132.78,-252.25 139.9,-260.09 143.24,-253.94"/>
</g>
<!-- sarafu&#45;vise -->
<g id="node4" class="node">
<title>sarafu&#45;vise</title>
<ellipse fill="none" stroke="black" cx="230" cy="-162" rx="51.35" ry="18"/>
<text text-anchor="middle" x="230" y="-156.95" font-family="Times,serif" font-size="14.00">sarafu&#45;vise</text>
</g>
<!-- visedriver&#45;&gt;sarafu&#45;vise -->
<g id="edge4" class="edge">
<title>visedriver&#45;&gt;sarafu&#45;vise</title>
<path fill="none" stroke="black" d="M230,-287.59C230,-263.61 230,-220.14 230,-191.42"/>
<polygon fill="black" stroke="black" points="233.5,-191.62 230,-181.62 226.5,-191.62 233.5,-191.62"/>
</g>
<!-- sarafu&#45;api&#45;&gt;sarafu&#45;vise -->
<g id="edge5" class="edge">
<title>sarafu&#45;api&#45;&gt;sarafu&#45;vise</title>
<path fill="none" stroke="black" d="M288.75,-217.12C279.08,-208.2 266.81,-196.91 255.99,-186.94"/>
<polygon fill="black" stroke="black" points="258.54,-184.53 248.81,-180.33 253.8,-189.68 258.54,-184.53"/>
</g>
<!-- eth&#45;custodial&#45;api -->
<g id="node6" class="node">
<title>eth&#45;custodial&#45;api</title>
<ellipse fill="none" stroke="grey" cx="372" cy="-162" rx="72.85" ry="18"/>
<text text-anchor="middle" x="372" y="-156.95" font-family="Times,serif" font-size="14.00" fill="grey">eth&#45;custodial&#45;api</text>
</g>
<!-- sarafu&#45;api&#45;&gt;eth&#45;custodial&#45;api -->
<g id="edge7" class="edge">
<title>sarafu&#45;api&#45;&gt;eth&#45;custodial&#45;api</title>
<path fill="none" stroke="grey" stroke-dasharray="5,2" d="M321.3,-216.76C329.43,-208.14 339.6,-197.36 348.68,-187.73"/>
<polygon fill="grey" stroke="grey" points="350.96,-190.41 355.28,-180.73 345.87,-185.61 350.96,-190.41"/>
</g>
<!-- visedriver&#45;africastalking&#45;&gt;sarafu&#45;vise -->
<g id="edge3" class="edge">
<title>visedriver&#45;africastalking&#45;&gt;sarafu&#45;vise</title>
<path fill="none" stroke="black" d="M131.57,-216.41C150.01,-206.4 173.62,-193.59 193.1,-183.02"/>
<polygon fill="black" stroke="black" points="194.7,-186.14 201.82,-178.29 191.36,-179.99 194.7,-186.14"/>
</g>
<!-- sarafu&#45;vise&#45;events -->
<g id="node5" class="node">
<title>sarafu&#45;vise&#45;events</title>
<ellipse fill="none" stroke="black" cx="336" cy="-90" rx="77.97" ry="18"/>
<text text-anchor="middle" x="336" y="-84.95" font-family="Times,serif" font-size="14.00">sarafu&#45;vise&#45;events</text>
</g>
<!-- sarafu&#45;vise&#45;&gt;sarafu&#45;vise&#45;events -->
<g id="edge6" class="edge">
<title>sarafu&#45;vise&#45;&gt;sarafu&#45;vise&#45;events</title>
<path fill="none" stroke="black" d="M253.26,-145.64C267.49,-136.24 285.95,-124.05 301.83,-113.57"/>
<polygon fill="black" stroke="black" points="303.63,-116.57 310.05,-108.13 299.78,-110.72 303.63,-116.57"/>
</g>
<!-- INSTANCE -->
<g id="node8" class="node">
<title>INSTANCE</title>
<ellipse fill="none" stroke="green" cx="283" cy="-18" rx="55.96" ry="18"/>
<text text-anchor="middle" x="283" y="-12.95" font-family="Times,serif" font-size="14.00" fill="green">INSTANCE</text>
</g>
<!-- sarafu&#45;vise&#45;&gt;INSTANCE -->
<g id="edge12" class="edge">
<title>sarafu&#45;vise&#45;&gt;INSTANCE</title>
<path fill="none" stroke="black" d="M231.82,-143.73C234.17,-125.39 239.2,-95.82 249,-72 252.78,-62.8 258.17,-53.44 263.55,-45.2"/>
<polygon fill="black" stroke="black" points="266.37,-47.27 269.14,-37.04 260.6,-43.32 266.37,-47.27"/>
</g>
<!-- sarafu&#45;vise&#45;events&#45;&gt;INSTANCE -->
<g id="edge13" class="edge">
<title>sarafu&#45;vise&#45;events&#45;&gt;INSTANCE</title>
<path fill="none" stroke="black" d="M323.17,-72.05C316.98,-63.89 309.43,-53.91 302.55,-44.82"/>
<polygon fill="black" stroke="black" points="305.45,-42.86 296.62,-37 299.87,-47.08 305.45,-42.86"/>
</g>
<!-- ge&#45;common -->
<g id="node7" class="node">
<title>ge&#45;common</title>
<ellipse fill="none" stroke="black" cx="401" cy="-306" rx="55.96" ry="18"/>
<text text-anchor="middle" x="401" y="-300.95" font-family="Times,serif" font-size="14.00">ge&#45;common</text>
</g>
<!-- ge&#45;common&#45;&gt;sarafu&#45;api -->
<g id="edge8" class="edge">
<title>ge&#45;common&#45;&gt;sarafu&#45;api</title>
<path fill="none" stroke="black" d="M379.44,-289.12C366.72,-279.74 350.42,-267.73 336.4,-257.41"/>
<polygon fill="black" stroke="black" points="338.49,-254.59 328.36,-251.48 334.33,-260.23 338.49,-254.59"/>
</g>
<!-- ge&#45;common&#45;&gt;sarafu&#45;vise -->
<g id="edge9" class="edge">
<title>ge&#45;common&#45;&gt;sarafu&#45;vise</title>
<path fill="none" stroke="black" d="M397.77,-287.67C393.25,-267.88 383.2,-235.71 363,-216 350.45,-203.76 311.35,-188.91 278.77,-178.05"/>
<polygon fill="black" stroke="black" points="280.05,-174.79 269.46,-175 277.87,-181.44 280.05,-174.79"/>
</g>
<!-- ge&#45;common&#45;&gt;sarafu&#45;vise&#45;events -->
<g id="edge10" class="edge">
<title>ge&#45;common&#45;&gt;sarafu&#45;vise&#45;events</title>
<path fill="none" stroke="black" d="M415.42,-288.26C440,-257.58 484.53,-191.19 454,-144 442.52,-126.26 423.54,-114.4 404.13,-106.5"/>
<polygon fill="black" stroke="black" points="405.35,-103.22 394.76,-103.03 402.92,-109.78 405.35,-103.22"/>
</g>
<!-- ge&#45;common&#45;&gt;eth&#45;custodial&#45;api -->
<g id="edge11" class="edge">
<title>ge&#45;common&#45;&gt;eth&#45;custodial&#45;api</title>
<path fill="none" stroke="grey" stroke-dasharray="5,2" d="M401.89,-287.66C402.39,-269.52 401.97,-240.35 396,-216 393.88,-207.37 390.38,-198.41 386.7,-190.36"/>
<polygon fill="grey" stroke="grey" points="389.88,-188.9 382.35,-181.44 383.59,-191.97 389.88,-188.9"/>
</g>
</g>
</svg>
